<svg xmlns="http://www.w3.org/2000/svg" width="512" height="512" viewBox="0 0 512 512"><rect width="100%" height="100%" fill="#000000"/><path fill="#FFFFFF" d="M107.465 236.14v13.63h1.42q.85 0 1.41-.24.57-.23.97-.75l8.98-11.36q.56-.72 1.18-1t1.56-.28h5.22l-10.95 13.52q-.97 1.24-2.01 1.75.75.27 1.34.76.6.48 1.14 1.27l11.29 15.23h-5.33q-1.08 0-1.61-.3-.53-.31-.89-.89l-9.2-12.02q-.43-.6-.99-.85t-1.62-.25h-1.91v14.31h-6.05v-32.53zm36.11 26.57v-3.9q-2.41.12-4.05.42-1.64.31-2.63.78t-1.42 1.1-.43 1.37q0 1.47.87 2.1t2.26.63q1.71 0 2.96-.62t2.44-1.88m-11.74-12.13-.99-1.78q3.98-3.64 9.58-3.64 2.03 0 3.62.66 1.6.67 2.7 1.85 1.11 1.18 1.68 2.82t.57 3.6v14.58h-2.52q-.78 0-1.21-.24-.43-.23-.68-.95l-.49-1.67q-.88.79-1.71 1.39-.83.59-1.73 1-.9.4-1.93.62-1.02.21-2.26.21-1.46 0-2.7-.39-1.24-.4-2.14-1.18-.9-.79-1.39-1.96-.5-1.17-.5-2.72 0-.88.3-1.75.29-.86.95-1.65.67-.79 1.72-1.49 1.06-.69 2.6-1.21t3.59-.85q2.05-.32 4.68-.39v-1.35q0-2.32-.99-3.43-.99-1.12-2.86-1.12-1.35 0-2.23.32-.89.31-1.57.71l-1.22.71q-.56.31-1.23.31-.59 0-.99-.3-.41-.3-.65-.71m32.6-5.36q2.56 0 4.67.84 2.1.83 3.6 2.36 1.49 1.53 2.3 3.73.81 2.21.81 4.93 0 2.75-.81 4.95-.81 2.21-2.3 3.76-1.5 1.55-3.6 2.39-2.11.83-4.67.83-2.59 0-4.7-.83-2.12-.84-3.61-2.39-1.5-1.55-2.32-3.76-.82-2.2-.82-4.95 0-2.72.82-4.93.82-2.2 2.32-3.73 1.49-1.53 3.61-2.36 2.11-.84 4.7-.84m0 19.51q2.88 0 4.26-1.93 1.39-1.94 1.39-5.67 0-3.74-1.39-5.69-1.38-1.96-4.26-1.96-2.93 0-4.33 1.97-1.41 1.97-1.41 5.68t1.41 5.66q1.4 1.94 4.33 1.94m21.19 3.94h-5.55v-23.09h3.39q1.08 0 1.42 1.02l.36 1.71q.61-.68 1.27-1.24.67-.56 1.42-.97.75-.4 1.62-.64t1.9-.24q2.18 0 3.59 1.19 1.41 1.18 2.1 3.13.54-1.14 1.35-1.96t1.78-1.34 2.06-.77 2.19-.25q1.92 0 3.4.59 1.49.59 2.5 1.71 1.01 1.13 1.54 2.75.53 1.61.53 3.71v14.69h-5.56v-14.69q0-2.21-.97-3.32-.96-1.12-2.83-1.12-.86 0-1.59.3-.73.29-1.28.84t-.87 1.38q-.31.84-.31 1.92v14.69h-5.58v-14.69q0-2.32-.94-3.38-.93-1.06-2.73-1.06-1.21 0-2.26.6t-1.95 1.63zm42.35-23.45q2.56 0 4.67.84 2.1.83 3.6 2.36 1.49 1.53 2.3 3.73.81 2.21.81 4.93 0 2.75-.81 4.95-.81 2.21-2.3 3.76-1.5 1.55-3.6 2.39-2.11.83-4.67.83-2.59 0-4.7-.83-2.12-.84-3.61-2.39-1.5-1.55-2.32-3.76-.82-2.2-.82-4.95 0-2.72.82-4.93.82-2.2 2.32-3.73 1.49-1.53 3.61-2.36 2.11-.84 4.7-.84m0 19.51q2.88 0 4.26-1.93 1.39-1.94 1.39-5.67 0-3.74-1.39-5.69-1.38-1.96-4.26-1.96-2.93 0-4.33 1.97-1.41 1.97-1.41 5.68t1.41 5.66q1.4 1.94 4.33 1.94m15.82-19.15h5.58v23.88q0 1.5-.4 2.83-.39 1.33-1.26 2.33-.86 1-2.27 1.58-1.41.57-3.43.57-.79 0-1.46-.1-.68-.1-1.4-.33l.2-2.99q.07-.45.36-.57.3-.13 1.13-.13t1.4-.17q.58-.16.92-.54.33-.37.48-.98.15-.6.15-1.5zm6.34-6.72q0 .72-.29 1.35t-.78 1.1q-.48.47-1.14.75-.67.29-1.41.29-.72 0-1.35-.29-.63-.28-1.1-.75-.48-.47-.76-1.1t-.28-1.35q0-.74.28-1.4.28-.65.76-1.12.47-.47 1.1-.76.63-.28 1.35-.28.74 0 1.41.28.66.29 1.14.76.49.47.78 1.12.29.66.29 1.4m5.09 6.72h5.58v23.09h-5.58zm6.34-6.72q0 .72-.29 1.35t-.78 1.1q-.48.47-1.13.75-.66.29-1.4.29-.72 0-1.36-.29-.64-.28-1.11-.75-.48-.47-.76-1.1t-.28-1.35q0-.74.28-1.4.28-.65.76-1.12.47-.47 1.11-.76.64-.28 1.36-.28.74 0 1.4.28.65.29 1.13.76.49.47.78 1.12.29.66.29 1.4m4.73 18.54v-4.64h11.65v4.64zm48.55-21.26h4.57v32.53h-5.33v-21.02q0-1.25.13-2.72l-9.83 18.48q-.7 1.32-2.14 1.32h-.85q-1.44 0-2.14-1.32l-9.95-18.54q.07.74.12 1.46.04.72.04 1.32v21.02h-5.33v-32.53h4.57q.4 0 .69.02.3.02.53.11.24.09.43.29.19.21.37.54l9.74 18.07q.39.72.71 1.49.33.76.64 1.57.32-.83.66-1.61.33-.77.72-1.49l9.6-18.03q.18-.33.39-.54.2-.2.44-.29.23-.09.52-.11.3-.02.7-.02m23.13 26.57v-3.9q-2.41.12-4.05.42-1.64.31-2.63.78t-1.42 1.1-.43 1.37q0 1.47.87 2.1t2.26.63q1.71 0 2.96-.62t2.44-1.88m-11.74-12.13-.99-1.78q3.98-3.64 9.58-3.64 2.03 0 3.62.66 1.6.67 2.7 1.85 1.11 1.18 1.68 2.82t.57 3.6v14.58h-2.52q-.78 0-1.21-.24-.43-.23-.68-.95l-.49-1.67q-.88.79-1.71 1.39-.83.59-1.73 1-.9.4-1.93.62-1.02.21-2.26.21-1.46 0-2.7-.39-1.24-.4-2.14-1.18-.9-.79-1.39-1.96-.5-1.17-.5-2.72 0-.88.3-1.75.29-.86.95-1.65.67-.79 1.72-1.49 1.06-.69 2.6-1.21t3.59-.85q2.05-.32 4.68-.39v-1.35q0-2.32-.99-3.43-.99-1.12-2.86-1.12-1.35 0-2.23.32-.89.31-1.57.71-.67.39-1.23.71-.55.31-1.22.31-.59 0-.99-.3-.41-.3-.65-.71m22.38-15.35h5.56v19.15h1.04q.56 0 .88-.14.33-.15.67-.6l5.74-7.09q.36-.47.79-.72.44-.25 1.14-.25h5.09l-7.18 8.58q-.77 1.01-1.67 1.55.48.34.85.79t.71.96l7.69 11.21h-5.02q-.65 0-1.12-.21-.47-.22-.79-.78l-5.89-8.75q-.32-.52-.66-.68-.33-.15-1.01-.15h-1.26v10.57h-5.56zm28.44 19.24h10.49q0-1.08-.31-2.03-.3-.96-.91-1.68-.6-.72-1.54-1.14-.93-.41-2.17-.41-2.41 0-3.79 1.37t-1.77 3.89m14.18 3.36h-14.29q.14 1.77.63 3.07.5 1.29 1.31 2.13.81.85 1.92 1.26 1.11.42 2.46.42t2.33-.31q.98-.32 1.71-.7t1.28-.7q.56-.31 1.07-.31.7 0 1.04.51l1.6 2.03q-.93 1.08-2.07 1.81-1.15.73-2.4 1.17t-2.54.62q-1.3.18-2.51.18-2.41 0-4.48-.8t-3.6-2.36q-1.53-1.57-2.41-3.87-.87-2.31-.87-5.35 0-2.36.76-4.44.77-2.08 2.19-3.62 1.43-1.54 3.49-2.44 2.06-.91 4.65-.91 2.18 0 4.03.7 1.84.7 3.17 2.04t2.08 3.28q.75 1.95.75 4.45 0 1.26-.27 1.7t-1.03.44m10.37-10.85.34 2.61q1.08-2.07 2.56-3.25 1.49-1.18 3.51-1.18 1.6 0 2.57.7l-.36 4.16q-.11.4-.33.57-.21.17-.57.17-.34 0-1-.11-.67-.11-1.3-.11-.92 0-1.64.27t-1.29.77q-.58.51-1.02 1.23-.43.72-.82 1.64v14.22h-5.55v-23.09h3.26q.85 0 1.19.31.34.3.45 1.09"/></svg>